<svg id="Capa_1" enable-background="new 0 0 512 512" height="512" viewBox="0 0 512 512" width="512" xmlns="http://www.w3.org/2000/svg"><g><path d="m410.535 167.988-153.619-167.585c-.493-.537-1.34-.537-1.832 0l-153.619 167.585c-.731.797-.165 2.083.916 2.083h81.265c.686 0 1.243.556 1.243 1.243v83.444c0 .686.556 1.243 1.243 1.243h139.737c.686 0 1.243-.556 1.243-1.243v-83.444c0-.686.556-1.243 1.243-1.243h81.265c1.081-.001 1.646-1.286.915-2.083z" fill="#b7e445"/><path d="m410.535 167.988-153.619-167.585c-.493-.537-1.34-.537-1.832 0l-10.244 11.176 103.468 112.874c8.777 9.574 1.985 25.014-11.004 25.014h-36.473c-8.244 0-14.927 6.683-14.927 14.927v56.075c0 8.244-6.683 14.927-14.927 14.927h-86.088v19.361c0 .686.556 1.243 1.243 1.243h139.737c.686 0 1.243-.556 1.243-1.243v-83.444c0-.686.556-1.243 1.243-1.243h81.265c1.081 0 1.646-1.285.915-2.082z" fill="#aad540"/><g fill="#617881"><path d="m134.076 284.444h-54.82c-.571 0-1.035.463-1.035 1.035v225.486c0 .571.463 1.035 1.035 1.035h140.154c.571 0 1.035-.463 1.035-1.035v-54.82c0-.571-.463-1.035-1.035-1.035h-83.264c-.571 0-1.035-.463-1.035-1.035v-168.596c0-.571-.463-1.035-1.035-1.035z"/><path d="m362.435 285.116-55.668 148.449c-.336.895-1.602.895-1.938 0l-55.669-148.449c-.151-.404-.537-.671-.969-.671h-54.679c-.722 0-1.222.722-.969 1.398l84.557 225.486c.151.404.538.671.969.671h55.455c.431 0 .817-.268.969-.671l84.557-225.486c.254-.676-.246-1.398-.969-1.398h-54.679c-.43-.001-.816.267-.967.671z"/><circle cx="405.333" cy="483.556" r="28.444"/></g></g></svg>